<svg width="63" height="63" viewBox="0 0 63 63" fill="none" xmlns="http://www.w3.org/2000/svg">
<rect width="63" height="63" fill="#E5E5E5"/>
<g clip-path="url(#clip0_857_2)">
<path d="M31.5 13C27.8411 13 24.2643 14.085 21.222 16.1178C18.1796 18.1506 15.8085 21.0399 14.4082 24.4204C13.008 27.8008 12.6417 31.5205 13.3555 35.1092C14.0693 38.6978 15.8313 41.9942 18.4185 44.5815C21.0058 47.1688 24.3022 48.9307 27.8908 49.6445C31.4795 50.3584 35.1992 49.992 38.5797 48.5918C41.9601 47.1916 44.8494 44.8204 46.8822 41.7781C48.915 38.7357 50 35.159 50 31.5C50.0023 29.0699 49.5253 26.6632 48.5964 24.4177C47.6675 22.1721 46.3049 20.1318 44.5865 18.4135C42.8682 16.6951 40.8279 15.3325 38.5823 14.4036C36.3368 13.4747 33.9301 12.9977 31.5 13ZM40.75 38.1415L38.1415 40.75L31.5 34.1085L24.8585 40.75L22.25 38.1415L28.8915 31.5L22.25 24.8585L24.8585 22.25L31.5 28.8915L38.1415 22.25L40.75 24.8585L34.1085 31.5L40.75 38.1415Z" fill="#742296"/>
</g>
<defs>
<clipPath id="clip0_857_2">
<rect width="37" height="37" fill="white" transform="translate(13 13)"/>
</clipPath>
</defs>
</svg>
