<svg width="29" height="29" viewBox="0 0 29 29" fill="none" xmlns="http://www.w3.org/2000/svg">
<g clip-path="url(#clip0_74_375)">
<path fill-rule="evenodd" clip-rule="evenodd" d="M0.939453 14.5751C0.939453 21.784 5.99462 27.7786 12.6061 28.9941V18.5215H9.10612V14.4941H12.6061V11.2715C12.6061 7.64652 14.8613 5.63343 18.051 5.63343C19.0613 5.63343 20.151 5.79414 21.1613 5.95485V9.66081H19.3728C17.6613 9.66081 17.2728 10.5465 17.2728 11.6751V14.4941H21.0061L20.3843 18.5215H17.2728V28.9941C23.8843 27.7786 28.9395 21.7852 28.9395 14.5751C28.9395 6.55539 22.6395 -0.00585938 14.9395 -0.00585938C7.23945 -0.00585938 0.939453 6.55539 0.939453 14.5751Z" fill="white"/>
</g>
<defs>
<clipPath id="clip0_74_375">
<rect width="28" height="29" fill="white" transform="translate(0.939453 -0.00585938)"/>
</clipPath>
</defs>
</svg>
