<svg width="28" height="27" viewBox="0 0 28 27" fill="none" xmlns="http://www.w3.org/2000/svg">
<g clip-path="url(#clip0_74_377)">
<path d="M0.939453 1.92802C0.939453 0.859828 1.82708 -0.00585938 2.92227 -0.00585938H25.9566C27.0518 -0.00585938 27.9395 0.859828 27.9395 1.92802V25.0603C27.9395 26.1285 27.0518 26.9941 25.9566 26.9941H2.92227C1.82708 26.9941 0.939453 26.1285 0.939453 25.0603V1.92802ZM9.28077 22.5965V10.4043H5.22908V22.5965H9.28077ZM7.25577 8.73877C8.6682 8.73877 9.54739 7.80389 9.54739 6.63277C9.52208 5.43633 8.66989 4.52677 7.28277 4.52677C5.89564 4.52677 4.98945 5.43802 4.98945 6.63277C4.98945 7.80389 5.86864 8.73877 7.22877 8.73877H7.25577ZM15.538 22.5965V15.7875C15.538 15.423 15.565 15.0585 15.673 14.7986C15.965 14.0713 16.6315 13.317 17.752 13.317C19.2185 13.317 19.804 14.4341 19.804 16.0743V22.5965H23.8557V15.6035C23.8557 11.8573 21.8577 10.1158 19.1915 10.1158C17.0416 10.1158 16.078 11.297 15.538 12.129V12.1711H15.511C15.52 12.1571 15.529 12.143 15.538 12.129V10.4043H11.488C11.5386 11.5485 11.488 22.5965 11.488 22.5965H15.538Z" fill="white"/>
</g>
<defs>
<clipPath id="clip0_74_377">
<rect width="27" height="27" fill="white" transform="translate(0.939453 -0.00585938)"/>
</clipPath>
</defs>
</svg>
