<svg width="26" height="24" viewBox="0 0 26 24" fill="none" xmlns="http://www.w3.org/2000/svg">
<g clip-path="url(#clip0_74_369)">
<path d="M1.7207 3.99424C1.7207 3.35772 1.96763 2.74727 2.40717 2.29718C2.84671 1.84709 3.44285 1.59424 4.06445 1.59424H22.8145C23.4361 1.59424 24.0322 1.84709 24.4717 2.29718C24.9113 2.74727 25.1582 3.35772 25.1582 3.99424V5.92704L13.4395 12.6758L1.7207 5.92704V3.99424Z" fill="#C6A460"/>
<path d="M1.7207 7.76234V19.9943C1.7207 20.6309 1.96763 21.2413 2.40717 21.6914C2.84671 22.1415 3.44285 22.3943 4.06445 22.3943H22.8145C23.4361 22.3943 24.0322 22.1415 24.4717 21.6914C24.9113 21.2413 25.1582 20.6309 25.1582 19.9943V7.76234L13.4395 14.5127L1.7207 7.76074V7.76234Z" fill="#C6A460"/>
</g>
<defs>
<clipPath id="clip0_74_369">
<rect width="25" height="24" fill="white" transform="translate(0.939453 -0.00585938)"/>
</clipPath>
</defs>
</svg>
