<svg width="33" height="32" viewBox="0 0 33 32" fill="none" xmlns="http://www.w3.org/2000/svg">
<path d="M24.9395 12.9941H22.9395C22.9387 12.1987 22.6223 11.4361 22.0599 10.8737C21.4975 10.3113 20.7349 9.99493 19.9395 9.99414V7.99414C21.265 7.99573 22.5359 8.52302 23.4732 9.46036C24.4106 10.3977 24.9379 11.6685 24.9395 12.9941Z" fill="#C6A460"/>
<path d="M28.9395 12.9941H26.9395C26.9374 11.1383 26.1992 9.35904 24.8869 8.04674C23.5746 6.73444 21.7953 5.99627 19.9395 5.99415V3.99415C22.3256 3.9968 24.6133 4.94586 26.3005 6.63311C27.9878 8.32036 28.9368 10.608 28.9395 12.9941ZM21.2725 21.4761L23.5125 19.2361C23.8123 18.9362 24.1936 18.7309 24.609 18.6456C25.0244 18.5603 25.4557 18.5987 25.8495 18.7561L28.5775 19.8481C28.9796 20.009 29.3242 20.2867 29.567 20.6453C29.8097 21.0039 29.9395 21.4271 29.9395 21.8601V26.8211C29.9402 27.116 29.8807 27.4079 29.7647 27.679C29.6486 27.9501 29.4785 28.1946 29.2647 28.3977C29.0509 28.6007 28.7979 28.758 28.5212 28.8599C28.2445 28.9617 27.9499 29.0061 27.6555 28.9901C8.53347 27.8001 4.67147 11.6041 3.95447 5.40215C3.91975 5.09894 3.9496 4.79182 4.04209 4.50099C4.13457 4.21015 4.28757 3.94219 4.49104 3.71473C4.69451 3.48726 4.94383 3.30546 5.22261 3.18126C5.50138 3.05706 5.80329 2.9933 6.10847 2.99415H10.9815C11.4145 2.99414 11.8377 3.12388 12.1963 3.36665C12.5549 3.60942 12.8326 3.95407 12.9935 4.35615L14.0845 7.08415C14.2419 7.47792 14.2804 7.90924 14.195 8.32465C14.1097 8.74006 13.9044 9.12131 13.6045 9.42115L11.3645 11.6611C11.3645 11.6611 12.6065 20.3931 21.2725 21.4761Z" fill="#C6A460"/>
</svg>
