<svg width="31" height="26" viewBox="0 0 31 26" fill="none" xmlns="http://www.w3.org/2000/svg">
<path d="M30.4631 3.57658C29.3498 4.06992 28.1538 4.40325 26.8965 4.55392C28.1938 3.77764 29.1644 2.55587 29.6271 1.11658C28.4083 1.84057 27.0743 2.35018 25.6831 2.62325C24.7477 1.6244 23.5086 0.962353 22.1582 0.739883C20.8079 0.517414 19.4219 0.746973 18.2155 1.39292C17.009 2.03887 16.0495 3.06507 15.486 4.31219C14.9225 5.55931 14.7865 6.95758 15.0991 8.28992C12.6294 8.16591 10.2133 7.52398 8.00771 6.40579C5.8021 5.2876 3.85626 3.71813 2.29648 1.79925C1.76314 2.71925 1.45648 3.78592 1.45648 4.92192C1.45588 5.94458 1.70772 6.95157 2.18965 7.85356C2.67158 8.75555 3.36869 9.52463 4.21914 10.0926C3.23285 10.0612 2.26831 9.7947 1.40581 9.31525V9.39525C1.40571 10.8296 1.90185 12.2198 2.81005 13.3299C3.71825 14.4401 4.98257 15.2018 6.38848 15.4859C5.47352 15.7335 4.51426 15.77 3.58314 15.5926C3.97981 16.8267 4.75247 17.906 5.79297 18.6792C6.83346 19.4524 8.0897 19.8808 9.38581 19.9046C7.18559 21.6318 4.46833 22.5687 1.67114 22.5646C1.17565 22.5647 0.680578 22.5358 0.188477 22.4779C3.02778 24.3035 6.33293 25.2723 9.70848 25.2686C21.1351 25.2686 27.3818 15.8046 27.3818 7.59658C27.3818 7.32992 27.3751 7.06058 27.3631 6.79392C28.5782 5.91522 29.627 4.82711 30.4605 3.58058L30.4631 3.57658Z" fill="white"/>
</svg>
