<svg width="126" height="126" viewBox="0 0 126 126" fill="none" xmlns="http://www.w3.org/2000/svg">
<path d="M13.4735 54.839C11.2922 55.8009 11.1037 56.6114 11.1325 57.8628C11.1703 59.5347 12.4743 62.2471 15.3894 61.8776C16.5026 61.7413 17.5741 61.3695 18.5325 60.787C19.3656 59.4974 14.7439 57.1306 15.0004 58.4306C15.2842 59.8466 14.6206 59.3231 14.4774 59.1539C14.0558 58.6619 13.0855 56.9093 15.605 56.8483C17.314 56.8076 18.9606 58.7952 19.7085 59.8147C20.3967 60.7531 20.9722 61.7691 21.423 62.8419C24.3479 69.9673 32.7954 92.1327 57.3513 91.5479L58.2566 91.5205L58.0358 82.1677C58.0358 82.1677 37.7108 82.8733 28.2833 59.4938C26.3683 54.7545 22.6765 53.5158 19.3224 53.5663L19.3761 53.5562L53.1417 35.6665C53.1029 36.0989 53.1559 36.5957 53.3365 36.8081C53.9585 37.5238 57.0999 38.956 57.0999 38.956C57.0999 38.956 53.9582 37.5503 53.3817 38.2935C53.1315 38.6142 53.4254 39.9211 53.4254 39.9211C56.7659 40.9897 60.1446 43.5733 60.8201 44.1063L61.7244 82.0798L60.1486 82.1174L60.3774 91.4759L61.9463 91.4395L62.3144 106.853L62.2968 106.854L59.439 110.413L64.1177 121.515L68.2587 110.203L65.2568 106.807L64.8892 91.3704L66.415 91.3331L66.198 81.9743L64.6663 82.0117L63.761 44.0392C64.2854 43.5796 67.6063 40.7335 70.9652 39.4808C70.9652 39.4808 71.1986 38.1653 70.9364 37.8598C70.3214 37.1508 67.2626 38.6954 67.2626 38.6954C67.2626 38.6954 70.3207 37.1233 70.904 36.379C71.0695 36.1652 71.1033 35.6879 71.0491 35.2665L105.563 51.5007L105.634 51.5117C102.278 51.6172 98.6422 53.0274 96.9542 57.8614C88.6483 81.6632 68.3157 81.9268 68.3157 81.9268L68.5384 91.2776L69.444 91.2619C94.0048 90.678 101.381 68.1328 103.969 60.8781C104.412 59.6282 105.054 58.497 105.533 57.7718C106.225 56.7219 107.765 54.6732 109.463 54.6317C111.963 54.5732 111.082 56.3611 110.693 56.8655C110.552 57.0375 109.926 57.5897 110.134 56.1718C110.331 54.8631 105.821 57.459 106.763 58.6907C107.745 59.2266 108.83 59.5443 109.946 59.6219C112.874 59.8551 114.049 57.0846 114.009 55.4148C113.979 54.1624 113.755 53.3627 111.53 52.5058C111.179 52.37 110.75 52.2312 110.279 52.0983L70.655 33.458C70.7621 33.3418 70.8399 33.234 70.839 33.1546C70.8195 32.253 70.8068 31.5552 70.7913 30.9045C70.0359 31.1745 69.0248 31.6202 67.8993 32.1637L66.166 31.348C67.8876 30.4765 69.5177 29.7552 70.7624 29.404L70.7506 28.7816C70.7225 27.437 66.8529 29.4765 64.7509 30.6826L63.4261 30.0592L63.4174 29.6926C63.4086 29.284 62.7413 28.9714 61.9318 28.9887C61.1204 29.008 60.4668 29.356 60.4794 29.7607L60.4876 30.1056L59.1911 30.7924C57.0212 29.6812 53.0849 27.8473 53.1217 29.1887L53.1404 29.808C54.3934 30.0929 56.0482 30.7359 57.8054 31.5265L56.1109 32.4238C54.9668 31.9344 53.9425 31.5381 53.183 31.3101L53.2488 33.5774C53.2505 33.65 53.3215 33.7463 53.421 33.8489L14.6668 54.3851C14.2193 54.535 13.8102 54.6908 13.4735 54.839ZM66.7747 109.773L64.6966 111.693L64.0385 118.189L63.0671 111.737L60.8979 109.916L63.1213 110.348L63.7886 107.903L64.5765 110.315L66.7747 109.773ZM69.7332 34.6458C69.0477 34.8063 68.3148 35.0748 68.3148 35.0748C68.3148 35.0748 68.7956 34.8015 69.3346 34.4592L69.7332 34.6458ZM66.2317 32.9966C65.3464 33.455 64.4306 33.9455 63.5317 34.4503L63.4908 32.7736C63.8379 32.581 64.1863 32.3904 64.5361 32.2016L66.2317 32.9966ZM63.4621 31.4457C63.4614 31.4464 63.4614 31.4464 63.4621 31.4457ZM59.484 32.3053C59.8418 32.4778 60.1986 32.652 60.5544 32.8279L60.5946 34.5134C59.6798 34.0539 58.7569 33.6107 57.8263 33.1841L59.484 32.3053ZM55.8696 35.3829C55.8696 35.3829 55.0871 35.1368 54.3791 35.0095L54.7868 34.7949C55.1428 34.9998 55.5039 35.1958 55.8696 35.3829Z" fill="white"/>
</svg>
