<svg width="80" height="80" viewBox="0 0 80 80" fill="none" xmlns="http://www.w3.org/2000/svg">
<path d="M28.3335 6.66675C25.6813 6.66675 23.1378 7.72032 21.2624 9.59568C19.3871 11.471 18.3335 14.0146 18.3335 16.6667C18.3335 19.3189 19.3871 21.8625 21.2624 23.7378C23.1378 25.6132 25.6813 26.6667 28.3335 26.6667H51.6668C54.319 26.6667 56.8625 25.6132 58.7379 23.7378C60.6133 21.8625 61.6668 19.3189 61.6668 16.6667C61.6668 14.0146 60.6133 11.471 58.7379 9.59568C56.8625 7.72032 54.319 6.66675 51.6668 6.66675H28.3335ZM51.6668 30.0001C49.0147 30.0001 46.4711 31.0536 44.5958 32.929C42.7204 34.8044 41.6668 37.3479 41.6668 40.0001C41.6668 42.6522 42.7204 45.1958 44.5958 47.0711C46.4711 48.9465 49.0147 50.0001 51.6668 50.0001C54.319 50.0001 56.8625 48.9465 58.7379 47.0711C60.6133 45.1958 61.6668 42.6522 61.6668 40.0001C61.6668 37.3479 60.6133 34.8044 58.7379 32.929C56.8625 31.0536 54.319 30.0001 51.6668 30.0001ZM18.3335 40.0001C18.3335 37.3479 19.3871 34.8044 21.2624 32.929C23.1378 31.0536 25.6813 30.0001 28.3335 30.0001H38.3335V50.0001H28.3335C25.6813 50.0001 23.1378 48.9465 21.2624 47.0711C19.3871 45.1958 18.3335 42.6522 18.3335 40.0001ZM28.3335 53.3334C26.3557 53.3334 24.4223 53.9199 22.7778 55.0187C21.1333 56.1175 19.8516 57.6793 19.0947 59.5066C18.3378 61.3338 18.1398 63.3445 18.5256 65.2843C18.9115 67.2241 19.8639 69.006 21.2624 70.4045C22.661 71.803 24.4428 72.7554 26.3826 73.1413C28.3224 73.5271 30.3331 73.3291 32.1603 72.5722C33.9876 71.8153 35.5494 70.5336 36.6482 68.8891C37.747 67.2446 38.3335 65.3112 38.3335 63.3334V53.3334H28.3335Z" fill="#F5F5F5"/>
</svg>
