<svg width="80" height="80" viewBox="0 0 80 80" fill="none" xmlns="http://www.w3.org/2000/svg">
<path d="M40.0001 6.66675C35.6227 6.66675 31.2882 7.52894 27.244 9.2041C23.1998 10.8793 19.5251 13.3346 16.4299 16.4299C10.1786 22.6811 6.66675 31.1595 6.66675 40.0001C6.66675 54.7334 16.2334 67.2334 29.4667 71.6668C31.1334 71.9334 31.6667 70.9001 31.6667 70.0001V64.3667C22.4334 66.3667 20.4667 59.9001 20.4667 59.9001C18.9334 56.0334 16.7667 55.0001 16.7667 55.0001C13.7334 52.9334 17.0001 53.0001 17.0001 53.0001C20.3334 53.2334 22.1001 56.4334 22.1001 56.4334C25.0001 61.5001 29.9001 60.0001 31.8001 59.2001C32.1001 57.0334 32.9667 55.5668 33.9001 54.7334C26.5001 53.9001 18.7334 51.0334 18.7334 38.3334C18.7334 34.6334 20.0001 31.6667 22.1667 29.3001C21.8334 28.4667 20.6667 25.0001 22.5001 20.5001C22.5001 20.5001 25.3001 19.6001 31.6667 23.9001C34.3001 23.1667 37.1667 22.8001 40.0001 22.8001C42.8334 22.8001 45.7001 23.1667 48.3334 23.9001C54.7001 19.6001 57.5001 20.5001 57.5001 20.5001C59.3334 25.0001 58.1667 28.4667 57.8334 29.3001C60.0001 31.6667 61.2667 34.6334 61.2667 38.3334C61.2667 51.0667 53.4667 53.8667 46.0334 54.7001C47.2334 55.7334 48.3334 57.7668 48.3334 60.8668V70.0001C48.3334 70.9001 48.8667 71.9668 50.5667 71.6668C63.8001 67.2001 73.3334 54.7334 73.3334 40.0001C73.3334 35.6227 72.4712 31.2882 70.7961 27.244C69.1209 23.1998 66.6656 19.5251 63.5703 16.4299C60.475 13.3346 56.8004 10.8793 52.7562 9.2041C48.712 7.52894 44.3775 6.66675 40.0001 6.66675Z" fill="white"/>
</svg>
