<svg width="80" height="80" viewBox="0 0 80 80" fill="none" xmlns="http://www.w3.org/2000/svg">
<path d="M68.16 68.172H56.312V49.612C56.312 45.184 56.22 39.488 50.136 39.488C43.96 39.488 43.016 44.304 43.016 49.284V68.172H31.172V30H42.548V35.2H42.704C44.292 32.2 48.16 29.04 53.936 29.04C65.94 29.04 68.16 36.936 68.16 47.22V68.172ZM17.788 24.776C13.972 24.776 10.908 21.692 10.908 17.896C10.908 14.1 13.976 11.016 17.788 11.016C19.6127 11.016 21.3626 11.7409 22.6529 13.0311C23.9431 14.3214 24.668 16.0713 24.668 17.896C24.668 19.7207 23.9431 21.4706 22.6529 22.7609C21.3626 24.0511 19.6127 24.776 17.788 24.776ZM23.724 68.176H11.844V30H23.724V68.176ZM74.088 0H5.904C2.64 0 0 2.58 0 5.76V74.24C0 77.42 2.64 80 5.904 80H74.072C77.332 80 80 77.424 80 74.24V5.76C80 2.584 77.332 0 74.072 0H74.088Z" fill="#F5F5F5"/>
</svg>
